<?xml version="1.0" ?><svg enable-background="new 0 0 32 32" version="1.1" viewBox="0 0 32 32" xml:space="preserve" xmlns="http://www.w3.org/2000/svg" xmlns:xlink="http://www.w3.org/1999/xlink"><g id="_x33_0"/><g id="_x32_9"/><g id="_x32_8"/><g id="_x32_7"/><g id="_x32_6"/><g id="_x32_5"/><g id="_x32_4"/><g id="_x32_3"/><g id="_x32_2"/><g id="_x32_1"/><g id="_x32_0"/><g id="_x31_8"/><g id="_x31_7"/><g id="_x31_6"/><g id="_x31_5"/><g id="_x31_4"/><g id="_x31_3"/><g id="_x31_2"/><g id="_x31_1"/><g id="_x31_0"/><g id="_x39_"/><g id="_x38_"/><g id="_x37_"/><g id="_x36_"/><g id="_x35_"/><g id="_x34_"><path d="M28,8h-9.586l3.293-3.293c0.391-0.391,0.391-1.023,0-1.414s-1.023-0.391-1.414,0l-4.545,4.544L8.351,5.063   C7.834,4.871,7.258,5.132,7.063,5.649C6.87,6.166,7.132,6.742,7.649,6.937L10.485,8H4C3.448,8,3,8.448,3,9v17c0,0.552,0.448,1,1,1   h2.184C6.598,28.161,7.698,29,9,29s2.402-0.839,2.816-2h8.369c0.414,1.161,1.514,2,2.816,2s2.402-0.839,2.816-2H28   c0.552,0,1-0.448,1-1V9C29,8.448,28.552,8,28,8z M27,25H5V10h22V25z M7,24h18c0.552,0,1-0.448,1-1V12c0-0.552-0.448-1-1-1H7   c-0.552,0-1,0.448-1,1v11C6,23.552,6.448,24,7,24z M8,13h16v9H8V13z M12.001,17c-0.367,0-0.72-0.202-0.896-0.553   c-0.247-0.494-0.047-1.095,0.447-1.342l2-1c0.495-0.248,1.095-0.047,1.342,0.447s0.047,1.095-0.447,1.342l-2,1   C12.304,16.966,12.151,17,12.001,17z M21.949,16.316C21.809,16.735,21.419,17,21,17c-0.104,0-0.211-0.017-0.316-0.052l-3-1   c-0.524-0.175-0.807-0.741-0.632-1.265c0.174-0.523,0.739-0.807,1.265-0.632l3,1C21.84,15.226,22.124,15.792,21.949,16.316z    M20,18.5c0,1.378-1.122,2.5-2.5,2.5c-0.565,0-1.081-0.195-1.5-0.513C15.581,20.805,15.065,21,14.5,21c-1.378,0-2.5-1.122-2.5-2.5   c0-0.552,0.448-1,1-1s1,0.448,1,1c0,0.276,0.224,0.5,0.5,0.5s0.5-0.224,0.5-0.5c0-0.552,0.448-1,1-1s1,0.448,1,1   c0,0.276,0.224,0.5,0.5,0.5s0.5-0.224,0.5-0.5c0-0.552,0.448-1,1-1S20,17.948,20,18.5z"/></g><g id="_x33_"/><g id="_x32_"/><g id="_x31_"/><g id="Guides"/></svg>